<?xml version="1.0" encoding="iso-8859-1"?>
<!-- Generator: Adobe Illustrator 19.0.0, SVG Export Plug-In . SVG Version: 6.00 Build 0)  -->
<svg version="1.1" id="Layer_1" xmlns="http://www.w3.org/2000/svg" xmlns:xlink="http://www.w3.org/1999/xlink" x="0px" y="0px"
	 viewBox="0 0 455 455" style="enable-background:new 0 0 455 455;" xml:space="preserve">
<g>
	<path d="M215,172.5c-30.327,0-55,24.673-55,55s24.673,55,55,55s55-24.673,55-55S245.327,172.5,215,172.5z M202.5,251.982
		c-8.895-4.561-15-13.819-15-24.482s6.105-19.922,15-24.482V251.982z M227.5,251.982v-48.965c8.895,4.561,15,13.819,15,24.482
		S236.395,247.422,227.5,251.982z"/>
	<path d="M0,89.331v276.338h455V89.331H0z M240,312.5h-25c-46.869,0-85-38.131-85-85s38.131-85,85-85h25c46.869,0,85,38.131,85,85
		S286.869,312.5,240,312.5z"/>
</g>
<g>
</g>
<g>
</g>
<g>
</g>
<g>
</g>
<g>
</g>
<g>
</g>
<g>
</g>
<g>
</g>
<g>
</g>
<g>
</g>
<g>
</g>
<g>
</g>
<g>
</g>
<g>
</g>
<g>
</g>
</svg>
